<?xml version="1.0" encoding="UTF-8" standalone="no"?>
<svg
   xmlns:dc="http://purl.org/dc/elements/1.1/"
   xmlns:cc="http://creativecommons.org/ns#"
   xmlns:rdf="http://www.w3.org/1999/02/22-rdf-syntax-ns#"
   xmlns:svg="http://www.w3.org/2000/svg"
   xmlns="http://www.w3.org/2000/svg"
   version="1.1"
   id="svg4187"
   viewBox="0 0 120.16683 157.67392"
   height="157.67392"
   width="120.16683">
  <defs
     id="defs4189" />
  <metadata
     id="metadata4192">
    <rdf:RDF>
      <cc:Work
         rdf:about="">
        <dc:format>image/svg+xml</dc:format>
        <dc:type
           rdf:resource="http://purl.org/dc/dcmitype/StillImage" />
        <dc:title></dc:title>
      </cc:Work>
    </rdf:RDF>
  </metadata>
  <g
     transform="translate(80.083415,-282.09667)"
     id="layer1">
    <path
       id="path4146"
       d="m -5.0657451,307.09681 c -1.9659,6.7e-4 -3.63996,1.42966 -3.94922,3.37109 -0.001,0.008 -6.9e-4,0.0152 -0.002,0.0234 l -0.002,0 -10.9277299,77.30859 c -3.86014,-2.85215 -9.0334,-4.45093 -14.42187,-4.45703 -11.44069,-2.4e-4 -20.71525,7.0357 -20.71485,15.71484 0.001,8.67838 9.27516,15.71313 20.71485,15.71289 10.60115,-0.002 19.48928,-6.07589 20.5957,-14.07422 2.83501,-22.06506 6.2436399,-44.18549 9.4453099,-66.24218 1.38635,2.23178 2.85067,4.27702 4.26171997,6.10547 4.99963003,6.47855 9.01556003,11.26524 6.51367003,25.60937 -1.02504,5.33031 7.0428701,6.73595 7.8808601,1.37305 2.85526,-16.37015 -2.95052,-25.24501 -8.0625001,-31.86914 -5.11108,-6.62298 -9.2993,-10.90614 -7.36719,-24.03125 3.4e-4,-0.002 -3.4e-4,-0.004 0,-0.006 l 0.004,-0.0234 c 0.31097997,-2.39449 -1.55415,-4.51663 -3.96875,-4.51562 z"
       style="fill:#ffffff;fill-opacity:1;stroke:none;stroke-width:1;stroke-miterlimit:4;stroke-dasharray:none;stroke-opacity:1" />
  </g>
</svg>
